<?xml version="1.0" standalone="no"?>
<!DOCTYPE svg PUBLIC "-//W3C//DTD SVG 20010904//EN"
 "http://www.w3.org/TR/2001/REC-SVG-20010904/DTD/svg10.dtd">
<svg version="1.0" xmlns="http://www.w3.org/2000/svg"
 width="700.000000pt" height="700.000000pt" viewBox="0 0 700.000000 700.000000"
 preserveAspectRatio="xMidYMid meet">
<metadata>
Created by potrace 1.14, written by Peter Selinger 2001-2017
</metadata>
<g transform="translate(0.000000,700.000000) scale(0.100000,-0.100000)"
fill="#000000" stroke="none">
<path d="M2538 6802 c-53 -108 -232 -471 -399 -807 -166 -335 -368 -745 -449
-910 -247 -501 -599 -1213 -967 -1955 -338 -680 -415 -838 -528 -1075 -115
-242 -157 -336 -152 -341 2 -2 181 68 398 157 217 89 441 180 499 204 58 23
157 64 220 90 63 26 138 56 165 67 28 11 64 26 80 33 31 14 217 89 415 170 63
25 124 50 135 55 11 5 61 25 110 45 50 20 99 40 110 45 11 5 72 30 135 55 63
26 129 53 146 60 17 8 103 43 190 79 87 35 209 84 269 109 61 25 200 82 310
126 110 45 214 88 230 95 17 8 75 32 130 54 55 22 139 57 188 76 48 20 126 52
175 71 48 20 96 40 107 45 11 5 72 30 135 55 63 26 129 52 145 59 17 7 45 19
63 26 17 7 32 16 32 20 0 3 -20 45 -44 91 -23 46 -118 231 -210 412 -91 180
-218 429 -282 555 -434 848 -550 1076 -1039 2037 -196 385 -198 388 -210 392
-6 1 -54 -86 -107 -195z"/>
<path d="M5155 3180 c-115 -49 -236 -101 -267 -115 -32 -14 -62 -25 -66 -25
-5 0 -22 -6 -38 -14 -16 -8 -139 -60 -274 -116 -135 -56 -258 -107 -275 -115
-16 -7 -70 -30 -120 -50 -49 -20 -103 -43 -120 -51 -16 -7 -55 -23 -85 -34
-30 -12 -78 -32 -108 -46 -29 -13 -55 -24 -57 -24 -2 0 -48 -18 -102 -41 -54
-23 -114 -48 -133 -56 -19 -8 -44 -18 -55 -23 -11 -5 -378 -158 -815 -340
-437 -182 -804 -335 -815 -340 -11 -5 -60 -26 -110 -46 -49 -20 -109 -45 -132
-55 -23 -10 -44 -19 -48 -19 -3 0 -24 -9 -48 -19 -23 -11 -125 -54 -227 -96
-102 -42 -198 -82 -215 -89 -16 -7 -115 -49 -219 -92 l-189 -79 -139 -285
c-77 -157 -143 -292 -148 -300 -9 -16 -66 -132 -239 -485 l-108 -220 1748 -3
c962 -1 2536 -1 3498 0 l1748 3 -813 1633 c-447 897 -814 1632 -816 1631 -2 0
-97 -41 -213 -89z"/>
</g>
</svg>
